<svg width="279.98301391601564px" height="105.6169952392578px" xmlns="http://www.w3.org/2000/svg" viewBox="110.00849304199218 22.191502380371098 279.98301391601564 105.6169952392578" style="background: rgba(0, 0, 0, 0);" preserveAspectRatio="xMidYMid"><defs><linearGradient id="editing-outline-gradient" x1="-0.41354545764260087" x2="1.4135454576426008" y1="0.09326335692419985" y2="0.9067366430758002"><stop offset="0" stop-color="#ee4208"></stop><stop offset="1" stop-color="#4139ff"></stop></linearGradient><filter id="editing-outline" x="-100%" y="-100%" width="300%" height="300%"><feMorphology in="SourceGraphic" operator="dilate" radius="2" result="outline"></feMorphology><feComposite operator="out" in="outline" in2="SourceAlpha"></feComposite></filter></defs><g filter="url(#editing-outline)"><g transform="translate(99.03500485420227, 114.0999984741211)"><path d="M45.82-17.60L45.82-17.60L45.82-17.60Q48.03-15.98 48.03-12.54L48.03-12.54L48.03-12.54Q48.03-9.10 46.54-6.67L46.54-6.67L46.54-6.67Q45.05-4.25 42.16-2.38L42.16-2.38L42.16-2.38Q35.96 1.62 25.12 1.62L25.12 1.62L25.12 1.62Q14.28 1.62 8.37-4.04L8.37-4.04L8.37-4.04Q2.47-9.69 2.47-19.72L2.47-19.72L2.47-19.72Q2.47-33.91 9.86-44.71L9.86-44.71L9.86-44.71Q15.47-52.70 25.50-56.10L25.50-56.10L25.50-56.10Q30.69-57.80 35.79-57.80L35.79-57.80L35.79-57.80Q40.89-57.80 44.03-57.12L44.03-57.12L44.03-57.12Q47.18-56.44 49.56-55.08L49.56-55.08L49.56-55.08Q54.74-52.11 54.74-47.35L54.74-47.35L54.74-47.35Q54.74-43.01 50.66-39.78L50.66-39.78L50.66-39.78Q46.92-36.89 43.86-36.89L43.86-36.89L43.86-36.89Q40.80-36.89 39.53-37.32L39.53-37.32L39.53-37.32Q39.87-40.38 39.87-42.37L39.87-42.37L39.87-42.37Q39.87-44.37 39.78-45.82L39.78-45.82L39.78-45.82Q39.70-47.26 39.27-48.62L39.27-48.62L39.27-48.62Q38.42-51.77 35.83-51.77L35.83-51.77L35.83-51.77Q33.23-51.77 30.64-49.34L30.64-49.34L30.64-49.34Q28.05-46.92 25.84-42.84L25.84-42.84L25.84-42.84Q20.83-33.58 20.83-22.61L20.83-22.61L20.83-22.61Q20.83-17.34 23.80-14.32L23.80-14.32L23.80-14.32Q26.78-11.31 33.15-11.31L33.15-11.31L33.15-11.31Q37.91-11.31 42.42-14.45L42.42-14.45L42.42-14.45Q44.37-15.81 45.82-17.60ZM97.84-9.44L97.84-9.44L97.84-9.44Q97.84-5.70 101.66-4.59L101.66-4.59L101.66-4.59Q100.73-1.45 97.07 0.26L97.07 0.26L97.07 0.26Q94.01 1.70 90.65 1.70L90.65 1.70L90.65 1.70Q87.30 1.70 85.55 0.81L85.55 0.81L85.55 0.81Q83.81-0.09 82.88-1.53L82.88-1.53L82.88-1.53Q81.34-3.74 81.34-7.91L81.34-7.91L81.34-7.91Q81.34-10.37 82.71-17.17L82.71-17.17L83.90-23.63L83.90-23.63Q85.34-31.03 85.34-33.75L85.34-33.75L85.34-33.75Q85.34-38.51 82.71-38.51L82.71-38.51L82.71-38.51Q79.39-38.51 77.27-33.66L77.27-33.66L77.27-33.66Q76.42-31.79 75.82-28.99L75.82-28.99L70.04 0L52.96 1.70L64.94-59.50L82.03-61.20L81.34-57.80L81.34-57.80Q78.97-44.71 76.93-40.29L76.93-40.29L76.93-40.29Q81.69-45.05 90.44-45.05L90.44-45.05L90.44-45.05Q99.71-45.05 101.41-38.93L101.41-38.93L101.41-38.93Q102-36.98 102-35.28L102-35.28L102-35.28Q102-33.58 101.87-32.26L101.87-32.26L101.87-32.26Q101.75-30.94 101.32-28.56L101.32-28.56L100.22-22.44L98.26-12.84L98.26-12.84Q97.84-10.88 97.84-9.44ZM112.24-2.55L112.24-2.55L112.24-2.55Q110.25-4.76 109.35-8.25L109.35-8.25L109.35-8.25Q108.46-11.73 108.46-17.43L108.46-17.43L108.46-17.43Q108.46-23.12 110.42-28.31L110.42-28.31L110.42-28.31Q112.37-33.49 115.94-37.23L115.94-37.23L115.94-37.23Q123.25-45.05 135.32-45.05L135.32-45.05L135.32-45.05Q139.66-45.05 142.80-43.61L142.80-43.61L157.34-45.05L151.05-11.90L151.05-11.90Q150.79-10.88 150.79-9.01L150.79-9.01L150.79-9.01Q150.79-7.14 151.94-5.95L151.94-5.95L151.94-5.95Q153.09-4.76 154.79-4.59L154.79-4.59L154.79-4.59Q153.94-1.70 150.83 0L150.83 0L150.83 0Q147.73 1.70 144.25 1.70L144.25 1.70L144.25 1.70Q140.76 1.70 138.42 0.38L138.42 0.38L138.42 0.38Q136.09-0.94 135.41-3.15L135.41-3.15L135.41-3.15Q134.05-1.02 131.16 0.34L131.16 0.34L131.16 0.34Q128.27 1.70 124.40 1.70L124.40 1.70L124.40 1.70Q120.53 1.70 117.39 0.68L117.39 0.68L117.39 0.68Q114.24-0.34 112.24-2.55ZM130.18-37.06L130.18-37.06L130.18-37.06Q129.20-35.53 128.35-32.94L128.35-32.94L128.35-32.94Q127.50-30.35 126.10-23.42L126.10-23.42L126.10-23.42Q124.70-16.49 124.70-11.56L124.70-11.56L124.70-11.56Q124.70-6.63 125.46-5.19L125.46-5.19L125.46-5.19Q126.23-3.74 127.59-3.74L127.59-3.74L127.59-3.74Q130.31-3.74 132.30-6.33L132.30-6.33L132.30-6.33Q134.30-8.93 135.06-13.52L135.06-13.52L139.57-38.42L139.57-38.42Q137.79-39.95 135.70-39.95L135.70-39.95L135.70-39.95Q133.62-39.95 132.39-39.27L132.39-39.27L132.39-39.27Q131.16-38.59 130.18-37.06ZM188.53-23.89L188.53-23.89L188.53-23.89Q191.59-29.33 191.59-34.85L191.59-34.85L191.59-34.85Q191.59-38.51 188.96-38.51L188.96-38.51L188.96-38.51Q186.92-38.51 184.79-35.02L184.79-35.02L184.79-35.02Q182.58-31.54 181.90-27.03L181.90-27.03L177.48 0L159.89 1.70L168.56-43.35L182.58-45.05L181.05-36.47L181.05-36.47Q185.22-45.05 194.57-45.05L194.57-45.05L194.57-45.05Q199.50-45.05 202.17-42.50L202.17-42.50L202.17-42.50Q204.85-39.95 204.85-34.72L204.85-34.72L204.85-34.72Q204.85-29.50 201.41-26.18L201.41-26.18L201.41-26.18Q197.97-22.87 192.10-22.87L192.10-22.87L192.10-22.87Q189.55-22.87 188.53-23.89ZM212.25-35.53L212.25-35.53L212.25-35.53Q215.14-39.61 219.51-42.33L219.51-42.33L219.51-42.33Q223.89-45.05 229.25-45.05L229.25-45.05L229.25-45.05Q234.60-45.05 237.15-43.35L237.15-43.35L253.81-45.05L248.03-12.41L248.03-12.41Q245.06 4.25 238.77 10.79L238.77 10.79L238.77 10.79Q232.73 17 221 17L221 17L221 17Q212.08 17 206.98 14.20L206.98 14.20L206.98 14.20Q201.88 11.39 201.88 6.72L201.88 6.72L201.88 6.72Q201.88 3.23 204.51 1.23L204.51 1.23L204.51 1.23Q207.15-0.77 211.23-0.77L211.23-0.77L211.23-0.77Q214.80-0.77 217.52 0.85L217.52 0.85L217.52 0.85Q219.13 1.70 219.90 2.89L219.90 2.89L219.90 2.89Q217.94 4.59 217.94 7.40L217.94 7.40L217.94 7.40Q217.94 11.05 221.34 11.05L221.34 11.05L221.34 11.05Q227.04 11.05 230.27-2.38L230.27-2.38L230.27-2.38Q231.20-6.04 231.97-9.69L231.97-9.69L231.97-9.69Q228.14-5.02 219.47-5.02L219.47-5.02L219.47-5.02Q213.44-5.02 209.95-7.91L209.95-7.91L209.95-7.91Q206.47-10.79 206.47-17.60L206.47-17.60L206.47-17.60Q206.47-21.85 207.91-26.65L207.91-26.65L207.91-26.65Q209.36-31.45 212.25-35.53ZM223.30-17.34L223.30-17.34L223.30-17.34Q223.30-11.56 226.27-11.56L226.27-11.56L226.27-11.56Q228.31-11.56 230.27-13.77L230.27-13.77L230.27-13.77Q231.80-15.56 232.39-18.19L232.39-18.19L236.73-40.04L236.73-40.04Q236.30-40.12 235.88-40.29L235.88-40.29L235.88-40.29Q235.03-40.63 233.92-40.63L233.92-40.63L233.92-40.63Q228.74-40.63 225.68-32.13L225.68-32.13L225.68-32.13Q223.30-25.50 223.30-17.34ZM291.55-14.37L291.55-14.37L291.55-14.37Q293.68-12.92 293.68-9.73L293.68-9.73L293.68-9.73Q293.68-6.55 292.06-4.50L292.06-4.50L292.06-4.50Q290.44-2.47 287.81-1.10L287.81-1.10L287.81-1.10Q282.37 1.70 276.50 1.70L276.50 1.70L276.50 1.70Q270.64 1.70 267.20 0.43L267.20 0.43L267.20 0.43Q263.75-0.85 261.46-3.23L261.46-3.23L261.46-3.23Q256.95-7.74 256.95-15.98L256.95-15.98L256.95-15.98Q256.95-28.82 263.93-36.64L263.93-36.64L263.93-36.64Q271.41-45.05 284.41-45.05L284.41-45.05L284.41-45.05Q292.49-45.05 296.48-41.65L296.48-41.65L296.48-41.65Q299.46-39.10 299.46-34.94L299.46-34.94L299.46-34.94Q299.46-19.98 273.62-19.98L273.62-19.98L273.62-19.98Q273.28-17.77 273.28-15.90L273.28-15.90L273.28-15.90Q273.28-11.99 275.02-10.50L275.02-10.50L275.02-10.50Q276.76-9.01 279.99-9.01L279.99-9.01L279.99-9.01Q283.22-9.01 286.66-10.50L286.66-10.50L286.66-10.50Q290.11-11.99 291.55-14.37ZM274.21-23.63L274.21-23.63L274.21-23.63Q280.25-23.63 283.73-27.37L283.73-27.37L283.73-27.37Q287.22-30.94 287.22-36.64L287.22-36.64L287.22-36.64Q287.22-38.59 286.49-39.65L286.49-39.65L286.49-39.65Q285.77-40.72 284.32-40.72L284.32-40.72L284.32-40.72Q282.88-40.72 281.65-40.16L281.65-40.16L281.65-40.16Q280.42-39.61 279.14-37.74L279.14-37.74L279.14-37.74Q276.00-33.49 274.21-23.63Z" fill="url(#editing-outline-gradient)"></path></g></g><style>text {
  font-size: 64px;
  font-family: Arial Black;
  dominant-baseline: central;
  text-anchor: middle;
}</style></svg>